PathFileType	4	(X/Y/Z)	./resultDataOpenSim/trcMotMarkerGrf/sub09/qtm-15-04.trc
DataRate	CameraRate	NumFrames	NumMarkers	Units	OrigDataRate	OrigDataStartFrame	OrigNumFrames
250.000000	250.000000	14	24	m	250.000000	243	484
Frame#	Time	L.Toe.Tip			R.Toe.Tip			L.Ankle.Lat			R.Ankle.Lat			L.Ankle.Med			R.Ankle.Med			L.Heel			R.Heel			L.Knee.Lat			R.Knee.Lat			L.Knee.Med			R.Knee.Med			L.Thigh.Upper			R.Thigh.Upper			L.ASIS			R.ASIS			V.Sacral			L.Acromium			R.Acromium			C7			L.Elbow			R.Elbow			L.Wrist.Lat			R.Wrist.Lat
		X1	Y1	Z1	X2	Y2	Z2	X3	Y3	Z3	X4	Y4	Z4	X5	Y5	Z5	X6	Y6	Z6	X7	Y7	Z7	X8	Y8	Z8	X9	Y9	Z9	X10	Y10	Z10	X11	Y11	Z11	X12	Y12	Z12	X13	Y13	Z13	X14	Y14	Z14	X15	Y15	Z15	X16	Y16	Z16	X17	Y17	Z17	X18	Y18	Z18	X19	Y19	Z19	X20	Y20	Z20	X21	Y21	Z21	X22	Y22	Z22	X23	Y23	Z23	X24	Y24	Z24

243	0.968	0.1231364	-0.059143567	0.031345822	0.33868608	0.16136849	0.12218683	-0.0091103049	-0.0064008913	-0.044272535	0.20309377	0.21618734	0.1355473	-0.00032543192	0.017965997	0.051952044	0.23379228	0.23738459	0.041288905	-0.089639213	-0.028250847	-0.009338531	0.13344463	0.20627179	0.080565206	0.11246668	0.39232417	-0.098789028	0.44574395	0.57274848	0.17047256	0.10303347	0.39758868	0.026008315	0.44625613	0.56418792	0.044366579	0.124094	0.81630412	-0.15939302	0.14843472	0.83854614	0.21450545	0.2220954	0.89675856	-0.10480661	0.22286942	0.91314192	0.13456216	0.061672062	0.97243853	0.012244918	0.28490098	1.3459068	-0.14927978	0.23320736	1.375395	0.17035001	0.1932695	1.4094052	-0.0030827111	0.21683184	0.98051742	-0.2517604	0.043486988	1.0832111	0.28472837	0.48003543	0.90523571	-0.26504055	0.12380103	0.84056713	0.38407219
244	0.972	0.12329782	-0.059135309	0.031367461	0.35938845	0.16102382	0.12051616	-0.0089996773	-0.0051992253	-0.043895544	0.22198812	0.21127627	0.13413285	0.00038554759	0.018914632	0.052397026	0.25196411	0.23377087	0.039962744	-0.089297274	-0.026711254	-0.0084290673	0.15316128	0.19938873	0.078971507	0.11342722	0.39317982	-0.098758344	0.45437394	0.57631878	0.16944292	0.10468377	0.39856467	0.026055246	0.4541687	0.56737942	0.043473627	0.12886392	0.81653247	-0.15946467	0.15501878	0.8395975	0.21460594	0.22725653	0.89676499	-0.10518725	0.22912428	0.91367614	0.13405819	0.067363719	0.97306143	0.012385247	0.29149029	1.3461184	-0.1497417	0.24124781	1.3755655	0.1699938	0.2005982	1.4098054	-0.0032336839	0.22668345	0.9799118	-0.2522839	0.050063523	1.0849791	0.28554961	0.49171274	0.91063848	-0.26450393	0.12773033	0.84180113	0.38576978
245	0.976	0.12344173	-0.059130304	0.031376572	0.38003261	0.1607611	0.11881405	-0.0089018321	-0.0040311408	-0.043481216	0.24103564	0.20647294	0.13255222	0.0011030341	0.019867819	0.052795729	0.27036793	0.23013225	0.038523075	-0.088984698	-0.025144769	-0.0076488884	0.17285394	0.19262727	0.077307364	0.11445917	0.39401829	-0.098720691	0.46270977	0.57961396	0.16836032	0.10658389	0.39955445	0.026171098	0.46187465	0.57028186	0.042601791	0.13368851	0.81674522	-0.15945084	0.16155594	0.84054287	0.21471978	0.2323982	0.89671886	-0.10555503	0.23537572	0.91418318	0.13361724	0.07311643	0.97365022	0.012542508	0.29809014	1.3463192	-0.1502067	0.24927198	1.3757295	0.1696193	0.20792057	1.4101727	-0.0034256654	0.2364918	0.97930463	-0.2526904	0.056555343	1.086792	0.28646437	0.50320052	0.91604167	-0.26393003	0.13172151	0.84307197	0.38741216
246	0.98	0.12357753	-0.059124188	0.031379921	0.40061521	0.16058382	0.11706617	-0.008754873	-0.0028977879	-0.043092317	0.26019748	0.20178377	0.13082752	0.0018501954	0.020840452	0.053144868	0.28893915	0.22653207	0.036950662	-0.088680449	-0.023550706	-0.0069130922	0.19255575	0.18598866	0.075589945	0.1156189	0.39483665	-0.098699363	0.47071317	0.58260718	0.16717533	0.10872272	0.40052756	0.026276858	0.46940325	0.57289637	0.04174112	0.13853809	0.81696348	-0.15935802	0.16806026	0.84139572	0.21485903	0.23751753	0.89661634	-0.10590477	0.24164478	0.91466879	0.13324858	0.078939397	0.97420575	0.01271827	0.30469453	1.3465102	-0.15067467	0.25729198	1.3758794	0.16922587	0.21524035	1.4104984	-0.003663759	0.24626617	0.97872212	-0.25298874	0.063073467	1.0886315	0.28742319	0.51449143	0.92142211	-0.26332692	0.13577649	0.84438027	0.38899757
247	0.984	0.12371144	-0.059116858	0.031384231	0.42112511	0.16049778	0.11525776	-0.0085245914	-0.0017846289	-0.042768204	0.27942296	0.19720738	0.12901239	0.0026402053	0.021848828	0.053448959	0.30755276	0.22300712	0.035264716	-0.088371301	-0.021919275	-0.0061948296	0.21233293	0.17946288	0.073789765	0.11691971	0.39563545	-0.098701916	0.47844882	0.58530612	0.16593837	0.11094829	0.40143276	0.02630976	0.47683551	0.57523474	0.040845249	0.14338555	0.81720929	-0.15919898	0.17453278	0.84216612	0.21502822	0.24268685	0.89647878	-0.1061849	0.2479393	0.91513608	0.13295575	0.084831775	0.97473131	0.012922834	0.31129996	1.3466941	-0.15114337	0.26530417	1.3760118	0.16881433	0.22256673	1.4107733	-0.0039400705	0.25602298	0.97819478	-0.25323645	0.069744616	1.0904469	0.2883194	0.52557203	0.92676869	-0.26271311	0.13989483	0.84572937	0.39053117
248	0.988	0.12384388	-0.059111375	0.03139391	0.44153601	0.16049991	0.11338014	-0.0082144574	-0.00067821795	-0.042514862	0.29867494	0.19274047	0.12715169	0.0034452182	0.022888238	0.053714631	0.32608459	0.21956789	0.033516728	-0.088041385	-0.020244226	-0.0055528571	0.23221259	0.17304759	0.071887557	0.11833585	0.39641337	-0.098727809	0.486008	0.58773768	0.16473004	0.11306717	0.40220321	0.026354012	0.48423867	0.57729836	0.039880246	0.14822078	0.8174919	-0.15897631	0.18095802	0.84285966	0.21521941	0.24797411	0.8963274	-0.10636248	0.25425264	0.91558059	0.13273209	0.090785763	0.97523661	0.013165291	0.31791962	1.34687	-0.15160205	0.27329428	1.3761253	0.16838748	0.22989988	1.4109928	-0.0042397705	0.26574099	0.97773072	-0.25350092	0.076573845	1.0922029	0.28907463	0.53643137	0.9320848	-0.26210554	0.144077	0.84712366	0.39202377
249	0.992	0.12397167	-0.059114191	0.031409929	0.46180427	0.16056736	0.11143709	-0.0078386902	0.00042610563	-0.042328228	0.31792889	0.18836771	0.1252547	0.004196761	0.023932003	0.05393485	0.34450505	0.21621377	0.03173717	-0.087681378	-0.018526192	-0.0050678295	0.25218208	0.16675551	0.0698913	0.11984478	0.39717055	-0.098780159	0.49343452	0.58991693	0.16359265	0.11492432	0.40284145	0.026552983	0.49157369	0.57907603	0.038885917	0.15306318	0.81780531	-0.15869863	0.1873342	0.84348319	0.21542891	0.25337848	0.89617554	-0.10646195	0.2605611	0.91599087	0.1325587	0.096792351	0.97572926	0.013440742	0.32457772	1.3470316	-0.15203829	0.28126022	1.3762183	0.16794701	0.23723045	1.4111655	-0.0045360989	0.27535081	0.97731699	-0.25380734	0.083460682	1.0938961	0.28967658	0.54707038	0.93737781	-0.26150705	0.14832715	0.84856839	0.39348966
250	0.996	0.12409191	-0.059133627	0.031429808	0.48189398	0.16066331	0.10942801	-0.0074085224	0.0015268179	-0.04221048	0.3371644	0.18407974	0.12330878	0.0048671143	0.024960215	0.054084997	0.36286185	0.21294229	0.029912994	-0.087306728	-0.016763302	-0.004747014	0.27221013	0.16060939	0.067834657	0.1214259	0.39791523	-0.098862211	0.50071312	0.59183656	0.16251882	0.11651753	0.4034679	0.026851444	0.49872028	0.58055639	0.037948642	0.15796569	0.81814626	-0.15841294	0.19368196	0.84404834	0.21565842	0.25889051	0.89605589	-0.10651574	0.26683299	0.91635425	0.13240928	0.1028477	0.97620394	0.013742106	0.33128661	1.3471761	-0.15245693	0.28921424	1.3762912	0.16749307	0.24454316	1.4113104	-0.0047913243	0.28480207	0.97693603	-0.25413459	0.090318758	1.0955368	0.29015231	0.55750825	0.94264851	-0.26089742	0.15264918	0.85006573	0.39494082
251	1	0.12420604	-0.059171317	0.031446678	0.50181202	0.16075811	0.10732274	-0.0069298135	0.0026251903	-0.042178314	0.35638289	0.17988902	0.12130529	0.0055319516	0.025979328	0.054148995	0.3811985	0.20974492	0.028012318	-0.086930258	-0.014956079	-0.0045342889	0.2922606	0.15462992	0.065747805	0.12302871	0.39866093	-0.098971348	0.50779127	0.59347016	0.16146802	0.1180861	0.40418927	0.02699571	0.50561779	0.58173911	0.037100271	0.16297822	0.81852543	-0.15817817	0.20001936	0.84456909	0.21590098	0.26451501	0.89599102	-0.10653885	0.27305859	0.91666416	0.13226354	0.10895137	0.9766485	0.014069212	0.33804404	1.3473075	-0.15287811	0.29716384	1.3763463	0.167028	0.25183048	1.4114407	-0.0049924316	0.29412531	0.97657685	-0.25446842	0.097124819	1.0971373	0.29053653	0.56777013	0.94788984	-0.26024987	0.1570324	0.85160272	0.39637745
252	1.004	0.12432173	-0.059214237	0.031448748	0.52159519	0.16084622	0.10507325	-0.0064046475	0.0037373778	-0.042249539	0.37560866	0.17581412	0.11924534	0.0062924346	0.027011096	0.054134269	0.39951363	0.2066124	0.026019674	-0.08651533	-0.013128595	-0.004403768	0.31230237	0.1488295	0.063623131	0.12460276	0.39941711	-0.09909545	0.51462573	0.59478787	0.16039729	0.11991684	0.40495966	0.026859691	0.51231785	0.58263446	0.036292025	0.1680846	0.8189513	-0.15798645	0.20636522	0.84505798	0.21615115	0.2702171	0.89594537	-0.10655284	0.27928334	0.91692497	0.13212693	0.11510313	0.97705917	0.014422597	0.34484405	1.3474289	-0.15331426	0.30510054	1.376385	0.16655547	0.25912164	1.4115528	-0.0051975736	0.30339672	0.97623708	-0.25482328	0.10388968	1.0987057	0.29085053	0.5778619	0.95309357	-0.25956128	0.16144528	0.85315326	0.39778624
253	1.008	0.12444903	-0.059243118	0.031426907	0.54126009	0.16094009	0.10265223	-0.0058336532	0.0048890308	-0.042413611	0.39485057	0.17185862	0.11712548	0.0071615481	0.028062606	0.054044264	0.41777049	0.20354895	0.02394672	-0.086001232	-0.011317411	-0.0043848515	0.33230946	0.14321644	0.061433225	0.12616763	0.40018598	-0.099211275	0.52124095	0.59578449	0.15930678	0.12203654	0.40566656	0.026589216	0.51889463	0.58325446	0.035472127	0.17321284	0.81941318	-0.157769	0.21275245	0.84552275	0.21641489	0.27594243	0.89587361	-0.1065773	0.28560746	0.9171495	0.13203482	0.12130378	0.97744085	0.014795882	0.35167661	1.3475376	-0.15376175	0.31301222	1.3764096	0.16607664	0.26648288	1.4116313	-0.0055141869	0.31266041	0.97591842	-0.2552053	0.11062682	1.1002406	0.2910956	0.58777592	0.95825267	-0.25883946	0.16586784	0.85470973	0.39915801
254	1.012	0.12459508	-0.059248012	0.031385511	0.56078398	0.16105309	0.10007323	-0.0052134516	0.0060829495	-0.042633998	0.4140802	0.16800784	0.11492414	0.0080717591	0.02911762	0.053860984	0.43592993	0.2005725	0.021810698	-0.085370374	-0.009530646	-0.0045002983	0.35226444	0.13779572	0.059166799	0.12780132	0.40096727	-0.099308211	0.52772974	0.59648623	0.15825208	0.12425985	0.40627164	0.026381861	0.52537364	0.58360903	0.034635393	0.17830698	0.81988781	-0.15747491	0.21920324	0.84596386	0.21668966	0.28166782	0.89577638	-0.10661736	0.29216256	0.91734968	0.13203844	0.12755403	0.97779705	0.015178648	0.35852984	1.3476258	-0.15421115	0.32089549	1.3764233	0.16559119	0.27394756	1.4116614	-0.0059897318	0.32191628	0.97562024	-0.25559437	0.1173445	1.1017386	0.29126528	0.59752467	0.9633574	-0.25806541	0.1703223	0.85629232	0.40050182
255	1.016	0.12476584	-0.059226826	0.031341514	0.58012772	0.16120049	0.097371461	-0.0045390235	0.007290234	-0.042881745	0.43324947	0.16423779	0.11260522	0.0089556689	0.03016095	0.053572048	0.45397549	0.19769985	0.019609812	-0.084652386	-0.0077439974	-0.0047320184	0.37216241	0.13256486	0.056832374	0.12956552	0.40176043	-0.099418866	0.53417643	0.59692345	0.1572912	0.12646262	0.40682452	0.02627285	0.53174618	0.58370674	0.033799027	0.18334519	0.82035404	-0.15708959	0.2257149	0.84637988	0.21695507	0.28739746	0.89567552	-0.10667491	0.29906622	0.91752157	0.13217945	0.1338504	0.97812673	0.015568772	0.36540094	1.3476856	-0.15465475	0.32874747	1.3764268	0.1650993	0.28145335	1.411647	-0.0065324186	0.3311511	0.97533607	-0.2559656	0.12404712	1.1031995	0.2913601	0.60713713	0.96839346	-0.25720937	0.17485592	0.85791281	0.40183379
256	1.02	0.12496704	-0.05917893	0.031310582	0.59926519	0.16140571	0.094564078	-0.0038162319	0.0084887269	-0.043148173	0.4523141	0.16053629	0.11014884	0.0097954152	0.03120159	0.053201286	0.4719064	0.19493707	0.017329109	-0.083882248	-0.0059328419	-0.0050462199	0.39200741	0.12751452	0.054453811	0.13148422	0.40256079	-0.099588396	0.5405942	0.5971054	0.15643382	0.12865521	0.40740636	0.026163844	0.53800291	0.58355328	0.032972963	0.18832505	0.82079957	-0.15660982	0.2322904	0.84677295	0.2171965	0.29314506	0.89557871	-0.1067526	0.30626885	0.91763259	0.13241655	0.14018454	0.97842656	0.015976633	0.37229808	1.3477152	-0.15508643	0.33655899	1.3764183	0.16460089	0.28890275	1.411613	-0.0069928495	0.34034581	0.97505511	-0.25631453	0.13073084	1.1046249	0.29139033	0.6166169	0.97334656	-0.25628618	0.17950854	0.85956105	0.40316457
